<svg width="320" height="90" viewBox="0 0 320 90" fill="none" xmlns="http://www.w3.org/2000/svg">
<rect width="320" height="90" rx="15" fill="#9A6638"/>
<rect width="320" height="80" rx="15" fill="url(#paint0_linear)"/>
<g filter="url(#filter0_dd)">
<rect x="10" y="10" width="300" height="60" rx="10" fill="#07AC62"/>
<rect x="10.5" y="10.5" width="299" height="59" rx="9.5" stroke="black"/>
</g>
<rect opacity="0.8" x="24" y="20" width="272" height="9" rx="4.5" fill="#2EC97E"/>
<path d="M31.8046 20.9C34.2579 20.9 36.1516 21.567 37.4856 22.901C38.8349 24.2197 39.5096 26.098 39.5096 28.536C39.5096 30.2073 39.1876 31.687 38.5436 32.975C37.9149 34.2477 37.0179 35.2367 35.8526 35.942C34.6872 36.6473 33.3456 37 31.8276 37H26.3306C25.7326 37 25.4336 36.7393 25.4336 36.218V35.436C25.4336 34.9147 25.7326 34.654 26.3306 34.654H26.8366V23.246H26.3306C25.7326 23.246 25.4336 22.9853 25.4336 22.464V21.682C25.4336 21.1607 25.7326 20.9 26.3306 20.9H31.8046ZM31.6436 34.654C33.2382 34.654 34.4802 34.1327 35.3696 33.09C36.2589 32.032 36.7036 30.5447 36.7036 28.628C36.7036 26.8187 36.2819 25.4693 35.4386 24.58C34.6106 23.6907 33.3532 23.246 31.6666 23.246H29.5966V34.654H31.6436ZM52.5164 30.675C52.5164 30.8437 52.4934 31.227 52.4474 31.825H44.7424C44.8498 32.791 45.1641 33.55 45.6854 34.102C46.2068 34.654 46.8891 34.93 47.7324 34.93C48.2998 34.93 48.7521 34.8457 49.0894 34.677C49.4268 34.493 49.7488 34.1863 50.0554 33.757C50.3468 33.435 50.6458 33.274 50.9524 33.274C51.2591 33.274 51.5198 33.366 51.7344 33.55C51.9491 33.7187 52.0564 33.9487 52.0564 34.24C52.0564 34.562 51.9414 34.8993 51.7114 35.252C50.7914 36.5707 49.4268 37.23 47.6174 37.23C46.4674 37.23 45.4631 36.977 44.6044 36.471C43.7458 35.965 43.0864 35.2597 42.6264 34.355C42.1664 33.435 41.9364 32.377 41.9364 31.181C41.9364 29.985 42.1664 28.9423 42.6264 28.053C43.0864 27.1483 43.7304 26.4583 44.5584 25.983C45.4018 25.5077 46.3754 25.27 47.4794 25.27C48.4454 25.27 49.3041 25.477 50.0554 25.891C50.8221 26.305 51.4201 26.9183 51.8494 27.731C52.2941 28.5437 52.5164 29.525 52.5164 30.675ZM47.4104 27.409C46.6744 27.409 46.0841 27.6313 45.6394 28.076C45.1948 28.5053 44.9111 29.157 44.7884 30.031H49.7334V29.893C49.7334 29.065 49.5264 28.444 49.1124 28.03C48.7138 27.616 48.1464 27.409 47.4104 27.409ZM74.5747 34.654C75.1727 34.654 75.4717 34.9147 75.4717 35.436V36.218C75.4717 36.7393 75.1727 37 74.5747 37H72.2287C71.9067 37 71.6613 36.8543 71.4927 36.563L69.1237 32.515C68.7557 31.9017 68.4567 31.4723 68.2267 31.227C68.012 30.9663 67.7743 30.7977 67.5137 30.721C67.253 30.629 66.862 30.583 66.3407 30.583H65.4667V34.654H65.9497C66.5477 34.654 66.8467 34.9147 66.8467 35.436V36.218C66.8467 36.7393 66.5477 37 65.9497 37H62.2007C61.6027 37 61.3037 36.7393 61.3037 36.218V35.436C61.3037 34.9147 61.6027 34.654 62.2007 34.654H62.7067V23.246H62.2007C61.6027 23.246 61.3037 22.9853 61.3037 22.464V21.682C61.3037 21.1607 61.6027 20.9 62.2007 20.9H67.6517C69.6297 20.9 71.1247 21.2833 72.1367 22.05C73.164 22.8167 73.6777 23.9513 73.6777 25.454C73.6777 26.5733 73.3787 27.524 72.7807 28.306C72.1827 29.0727 71.347 29.617 70.2737 29.939C70.519 30.0617 70.7413 30.2457 70.9407 30.491C71.1553 30.721 71.393 31.043 71.6537 31.457L73.5167 34.654H74.5747ZM67.4907 28.237C68.656 28.237 69.507 28.0147 70.0437 27.57C70.5957 27.11 70.8717 26.42 70.8717 25.5C70.8717 24.718 70.6033 24.1507 70.0667 23.798C69.53 23.43 68.6943 23.246 67.5597 23.246H65.4667V28.237H67.4907ZM87.7576 30.675C87.7576 30.8437 87.7346 31.227 87.6886 31.825H79.9836C80.091 32.791 80.4053 33.55 80.9266 34.102C81.448 34.654 82.1303 34.93 82.9736 34.93C83.541 34.93 83.9933 34.8457 84.3306 34.677C84.668 34.493 84.99 34.1863 85.2966 33.757C85.588 33.435 85.887 33.274 86.1936 33.274C86.5003 33.274 86.761 33.366 86.9756 33.55C87.1903 33.7187 87.2976 33.9487 87.2976 34.24C87.2976 34.562 87.1826 34.8993 86.9526 35.252C86.0326 36.5707 84.668 37.23 82.8586 37.23C81.7086 37.23 80.7043 36.977 79.8456 36.471C78.987 35.965 78.3276 35.2597 77.8676 34.355C77.4076 33.435 77.1776 32.377 77.1776 31.181C77.1776 29.985 77.4076 28.9423 77.8676 28.053C78.3276 27.1483 78.9716 26.4583 79.7996 25.983C80.643 25.5077 81.6166 25.27 82.7206 25.27C83.6866 25.27 84.5453 25.477 85.2966 25.891C86.0633 26.305 86.6613 26.9183 87.0906 27.731C87.5353 28.5437 87.7576 29.525 87.7576 30.675ZM82.6516 27.409C81.9156 27.409 81.3253 27.6313 80.8806 28.076C80.436 28.5053 80.1523 29.157 80.0296 30.031H84.9746V29.893C84.9746 29.065 84.7676 28.444 84.3536 28.03C83.955 27.616 83.3876 27.409 82.6516 27.409ZM101.368 25.5C101.966 25.5 102.265 25.7607 102.265 26.282V27.064C102.265 27.5853 101.966 27.846 101.368 27.846H100.885V36.333C100.885 38.357 100.394 39.8903 99.4125 40.933C98.4312 41.991 97.0052 42.52 95.1345 42.52C94.2452 42.52 93.4555 42.3973 92.7655 42.152C92.0755 41.922 91.5389 41.5923 91.1555 41.163C90.7722 40.749 90.5805 40.266 90.5805 39.714C90.5805 39.2387 90.7262 38.8553 91.0175 38.564C91.3089 38.2727 91.6922 38.127 92.1675 38.127C92.6122 38.127 92.9802 38.2727 93.2715 38.564C93.5629 38.8707 93.7085 39.2387 93.7085 39.668C93.7085 39.806 93.7009 39.9057 93.6855 39.967C94.0229 40.1357 94.4829 40.22 95.0655 40.22C96.1082 40.22 96.8825 39.921 97.3885 39.323C97.8945 38.725 98.1475 37.7973 98.1475 36.54V34.815C97.8562 35.5203 97.3732 36.103 96.6985 36.563C96.0239 37.0077 95.2955 37.23 94.5135 37.23C93.5935 37.23 92.7885 36.9923 92.0985 36.517C91.4239 36.0417 90.8949 35.3747 90.5115 34.516C90.1435 33.642 89.9595 32.6223 89.9595 31.457C89.9595 29.5097 90.4119 27.9917 91.3165 26.903C92.2212 25.8143 93.4709 25.27 95.0655 25.27C95.7249 25.27 96.3459 25.4233 96.9285 25.73C97.5112 26.0367 98.0095 26.4967 98.4235 27.11L98.5845 26.236C98.6459 25.9753 98.7455 25.7913 98.8835 25.684C99.0215 25.5613 99.2132 25.5 99.4585 25.5H101.368ZM95.2955 34.93C95.8169 34.93 96.2922 34.7767 96.7215 34.47C97.1662 34.1633 97.5112 33.7493 97.7565 33.228C98.0172 32.6913 98.1475 32.1087 98.1475 31.48V28.904C97.7949 28.4747 97.3885 28.145 96.9285 27.915C96.4685 27.685 95.9779 27.57 95.4565 27.57C94.5825 27.57 93.9079 27.9073 93.4325 28.582C92.9725 29.2413 92.7425 30.1997 92.7425 31.457C92.7425 32.561 92.9649 33.4197 93.4095 34.033C93.8542 34.631 94.4829 34.93 95.2955 34.93ZM111.584 25.27C112.258 25.27 112.78 25.4463 113.148 25.799C113.516 26.1517 113.7 26.6193 113.7 27.202C113.7 27.708 113.531 28.1373 113.194 28.49C112.872 28.8273 112.458 28.996 111.952 28.996C111.522 28.996 111.162 28.8733 110.871 28.628C110.595 28.3673 110.418 28.03 110.342 27.616C109.744 27.754 109.238 28.168 108.824 28.858C108.41 29.548 108.203 30.3223 108.203 31.181V34.654H109.146C109.744 34.654 110.043 34.9147 110.043 35.436V36.218C110.043 36.7393 109.744 37 109.146 37H104.96C104.362 37 104.063 36.7393 104.063 36.218V35.436C104.063 34.9147 104.362 34.654 104.96 34.654H105.466V27.846H104.96C104.362 27.846 104.063 27.5853 104.063 27.064V26.282C104.063 25.7607 104.362 25.5 104.96 25.5H107.214C107.49 25.5 107.72 25.5997 107.904 25.799C108.103 25.983 108.203 26.2053 108.203 26.466V28.214C108.479 27.3093 108.923 26.5963 109.537 26.075C110.15 25.5383 110.832 25.27 111.584 25.27ZM125.604 30.675C125.604 30.8437 125.581 31.227 125.535 31.825H117.83C117.938 32.791 118.252 33.55 118.773 34.102C119.295 34.654 119.977 34.93 120.82 34.93C121.388 34.93 121.84 34.8457 122.177 34.677C122.515 34.493 122.837 34.1863 123.143 33.757C123.435 33.435 123.734 33.274 124.04 33.274C124.347 33.274 124.608 33.366 124.822 33.55C125.037 33.7187 125.144 33.9487 125.144 34.24C125.144 34.562 125.029 34.8993 124.799 35.252C123.879 36.5707 122.515 37.23 120.705 37.23C119.555 37.23 118.551 36.977 117.692 36.471C116.834 35.965 116.174 35.2597 115.714 34.355C115.254 33.435 115.024 32.377 115.024 31.181C115.024 29.985 115.254 28.9423 115.714 28.053C116.174 27.1483 116.818 26.4583 117.646 25.983C118.49 25.5077 119.463 25.27 120.567 25.27C121.533 25.27 122.392 25.477 123.143 25.891C123.91 26.305 124.508 26.9183 124.937 27.731C125.382 28.5437 125.604 29.525 125.604 30.675ZM120.498 27.409C119.762 27.409 119.172 27.6313 118.727 28.076C118.283 28.5053 117.999 29.157 117.876 30.031H122.821V29.893C122.821 29.065 122.614 28.444 122.2 28.03C121.802 27.616 121.234 27.409 120.498 27.409ZM133.257 30.054C134.714 30.468 135.741 30.951 136.339 31.503C136.937 32.0397 137.236 32.768 137.236 33.688C137.236 34.3627 137.037 34.9683 136.638 35.505C136.24 36.0417 135.68 36.4633 134.959 36.77C134.254 37.0767 133.434 37.23 132.498 37.23C131.042 37.23 129.884 36.977 129.025 36.471C128.167 35.965 127.737 35.298 127.737 34.47C127.737 33.9947 127.883 33.6113 128.174 33.32C128.466 33.0133 128.849 32.86 129.324 32.86C129.754 32.86 130.114 33.0133 130.405 33.32C130.712 33.6113 130.865 33.9793 130.865 34.424C130.865 34.608 130.827 34.792 130.75 34.976C131.103 35.2367 131.67 35.367 132.452 35.367C133.112 35.367 133.618 35.252 133.97 35.022C134.323 34.792 134.499 34.4777 134.499 34.079C134.499 33.6803 134.361 33.3737 134.085 33.159C133.825 32.9443 133.28 32.722 132.452 32.492C131.302 32.17 130.405 31.8403 129.761 31.503C129.117 31.1657 128.657 30.7823 128.381 30.353C128.105 29.9083 127.967 29.364 127.967 28.72C127.967 28.0453 128.167 27.4473 128.565 26.926C128.964 26.4047 129.516 25.9983 130.221 25.707C130.942 25.4157 131.762 25.27 132.682 25.27C134.032 25.27 135.097 25.5077 135.879 25.983C136.677 26.443 137.075 27.0793 137.075 27.892C137.075 28.3673 136.93 28.7507 136.638 29.042C136.362 29.3333 135.979 29.479 135.488 29.479C135.059 29.479 134.691 29.3333 134.384 29.042C134.093 28.7353 133.947 28.3673 133.947 27.938C133.947 27.7387 133.978 27.5777 134.039 27.455C133.763 27.2403 133.288 27.133 132.613 27.133C132.031 27.133 131.563 27.2557 131.21 27.501C130.873 27.7463 130.704 28.0683 130.704 28.467C130.704 28.8043 130.873 29.0803 131.21 29.295C131.563 29.5097 132.245 29.7627 133.257 30.054ZM145.006 37.23C143.273 37.23 141.909 36.7087 140.912 35.666C139.915 34.608 139.417 33.1743 139.417 31.365C139.417 30.1383 139.647 29.065 140.107 28.145C140.582 27.225 141.249 26.5197 142.108 26.029C142.967 25.523 143.979 25.27 145.144 25.27C146.877 25.27 148.234 25.7913 149.215 26.834C150.212 27.8767 150.71 29.3027 150.71 31.112C150.71 32.3387 150.472 33.4197 149.997 34.355C149.537 35.275 148.878 35.988 148.019 36.494C147.16 36.9847 146.156 37.23 145.006 37.23ZM145.029 34.93C145.964 34.93 146.677 34.608 147.168 33.964C147.674 33.3047 147.927 32.3617 147.927 31.135C147.927 29.9697 147.689 29.088 147.214 28.49C146.739 27.8767 146.041 27.57 145.121 27.57C144.201 27.57 143.48 27.8997 142.959 28.559C142.453 29.2183 142.2 30.146 142.2 31.342C142.2 32.492 142.445 33.3813 142.936 34.01C143.427 34.6233 144.124 34.93 145.029 34.93ZM169.531 34.654C170.129 34.654 170.428 34.9147 170.428 35.436V36.218C170.428 36.7393 170.129 37 169.531 37H167.277C167.001 37 166.771 36.908 166.587 36.724C166.403 36.5247 166.311 36.2947 166.311 36.034V34.746C166.02 35.4667 165.537 36.0647 164.862 36.54C164.203 37 163.505 37.23 162.769 37.23C161.696 37.23 160.829 36.9157 160.17 36.287C159.526 35.6583 159.204 34.838 159.204 33.826C159.204 32.7067 159.572 31.8633 160.308 31.296C161.059 30.7133 162.163 30.422 163.62 30.422C164.509 30.422 165.406 30.5217 166.311 30.721V29.778C166.311 28.2293 165.544 27.455 164.011 27.455C163.52 27.455 163.129 27.5393 162.838 27.708C162.853 27.754 162.861 27.823 162.861 27.915C162.861 28.3597 162.715 28.7277 162.424 29.019C162.133 29.3103 161.772 29.456 161.343 29.456C160.868 29.456 160.484 29.3103 160.193 29.019C159.902 28.7277 159.756 28.3443 159.756 27.869C159.756 27.087 160.147 26.4583 160.929 25.983C161.726 25.5077 162.761 25.27 164.034 25.27C165.675 25.27 166.917 25.6917 167.76 26.535C168.619 27.3783 169.048 28.5667 169.048 30.1V34.654H169.531ZM163.551 35.16C164.272 35.16 164.9 34.8687 165.437 34.286C165.974 33.7033 166.265 33.0057 166.311 32.193C165.713 32.101 164.946 32.055 164.011 32.055C163.29 32.055 162.761 32.1853 162.424 32.446C162.087 32.6913 161.918 33.0977 161.918 33.665C161.918 34.125 162.064 34.493 162.355 34.769C162.662 35.0297 163.06 35.16 163.551 35.16ZM179.096 37C178.498 37 178.199 36.7393 178.199 36.218V35.436C178.199 34.9147 178.498 34.654 179.096 34.654H179.602V22.326H179.096C178.498 22.326 178.199 22.0653 178.199 21.544V20.762C178.199 20.2407 178.498 19.98 179.096 19.98H181.35C181.626 19.98 181.856 20.0797 182.04 20.279C182.24 20.463 182.339 20.6853 182.339 20.946V34.654H182.822C183.42 34.654 183.719 34.9147 183.719 35.436V36.218C183.719 36.7393 183.42 37 182.822 37H179.096ZM195.788 34.654C196.386 34.654 196.685 34.9147 196.685 35.436V36.218C196.685 36.7393 196.386 37 195.788 37H193.534C193.258 37 193.028 36.908 192.844 36.724C192.66 36.5247 192.568 36.2947 192.568 36.034V34.746C192.276 35.4667 191.793 36.0647 191.119 36.54C190.459 37 189.762 37.23 189.026 37.23C187.952 37.23 187.086 36.9157 186.427 36.287C185.783 35.6583 185.461 34.838 185.461 33.826C185.461 32.7067 185.829 31.8633 186.565 31.296C187.316 30.7133 188.42 30.422 189.877 30.422C190.766 30.422 191.663 30.5217 192.568 30.721V29.778C192.568 28.2293 191.801 27.455 190.268 27.455C189.777 27.455 189.386 27.5393 189.095 27.708C189.11 27.754 189.118 27.823 189.118 27.915C189.118 28.3597 188.972 28.7277 188.681 29.019C188.389 29.3103 188.029 29.456 187.6 29.456C187.124 29.456 186.741 29.3103 186.45 29.019C186.158 28.7277 186.013 28.3443 186.013 27.869C186.013 27.087 186.404 26.4583 187.186 25.983C187.983 25.5077 189.018 25.27 190.291 25.27C191.931 25.27 193.173 25.6917 194.017 26.535C194.875 27.3783 195.305 28.5667 195.305 30.1V34.654H195.788ZM189.808 35.16C190.528 35.16 191.157 34.8687 191.694 34.286C192.23 33.7033 192.522 33.0057 192.568 32.193C191.97 32.101 191.203 32.055 190.268 32.055C189.547 32.055 189.018 32.1853 188.681 32.446C188.343 32.6913 188.175 33.0977 188.175 33.665C188.175 34.125 188.32 34.493 188.612 34.769C188.918 35.0297 189.317 35.16 189.808 35.16ZM216.462 32.147C216.984 32.147 217.244 32.446 217.244 33.044V35.919C217.244 36.2257 217.137 36.4863 216.922 36.701C216.708 36.9003 216.447 37 216.14 37H205.928C205.33 37 205.031 36.7393 205.031 36.218V35.436C205.031 34.9147 205.33 34.654 205.928 34.654H206.434V23.246H205.928C205.33 23.246 205.031 22.9853 205.031 22.464V21.682C205.031 21.1607 205.33 20.9 205.928 20.9H216.002C216.324 20.9 216.585 21.0073 216.784 21.222C216.999 21.4367 217.106 21.6973 217.106 22.004V24.442C217.106 25.04 216.846 25.339 216.324 25.339H215.565C215.044 25.339 214.783 25.04 214.783 24.442V23.246H209.194V27.501H213.518C213.764 27.501 213.971 27.5853 214.139 27.754C214.308 27.9073 214.392 28.1067 214.392 28.352V28.973C214.392 29.2183 214.308 29.4253 214.139 29.594C213.971 29.7627 213.764 29.847 213.518 29.847H209.194V34.654H214.898V33.044C214.898 32.446 215.159 32.147 215.68 32.147H216.462ZM225.235 30.054C226.691 30.468 227.719 30.951 228.317 31.503C228.915 32.0397 229.214 32.768 229.214 33.688C229.214 34.3627 229.014 34.9683 228.616 35.505C228.217 36.0417 227.657 36.4633 226.937 36.77C226.231 37.0767 225.411 37.23 224.476 37.23C223.019 37.23 221.861 36.977 221.003 36.471C220.144 35.965 219.715 35.298 219.715 34.47C219.715 33.9947 219.86 33.6113 220.152 33.32C220.443 33.0133 220.826 32.86 221.302 32.86C221.731 32.86 222.091 33.0133 222.383 33.32C222.689 33.6113 222.843 33.9793 222.843 34.424C222.843 34.608 222.804 34.792 222.728 34.976C223.08 35.2367 223.648 35.367 224.43 35.367C225.089 35.367 225.595 35.252 225.948 35.022C226.3 34.792 226.477 34.4777 226.477 34.079C226.477 33.6803 226.339 33.3737 226.063 33.159C225.802 32.9443 225.258 32.722 224.43 32.492C223.28 32.17 222.383 31.8403 221.739 31.503C221.095 31.1657 220.635 30.7823 220.359 30.353C220.083 29.9083 219.945 29.364 219.945 28.72C219.945 28.0453 220.144 27.4473 220.543 26.926C220.941 26.4047 221.493 25.9983 222.199 25.707C222.919 25.4157 223.74 25.27 224.66 25.27C226.009 25.27 227.075 25.5077 227.857 25.983C228.654 26.443 229.053 27.0793 229.053 27.892C229.053 28.3673 228.907 28.7507 228.616 29.042C228.34 29.3333 227.956 29.479 227.466 29.479C227.036 29.479 226.668 29.3333 226.362 29.042C226.07 28.7353 225.925 28.3673 225.925 27.938C225.925 27.7387 225.955 27.5777 226.017 27.455C225.741 27.2403 225.265 27.133 224.591 27.133C224.008 27.133 223.54 27.2557 223.188 27.501C222.85 27.7463 222.682 28.0683 222.682 28.467C222.682 28.8043 222.85 29.0803 223.188 29.295C223.54 29.5097 224.223 29.7627 225.235 30.054ZM240.41 33.274C240.717 33.274 240.978 33.366 241.192 33.55C241.407 33.7187 241.514 33.9487 241.514 34.24C241.514 34.562 241.399 34.8993 241.169 35.252C240.249 36.5707 238.885 37.23 237.075 37.23C235.925 37.23 234.921 36.977 234.062 36.471C233.204 35.965 232.544 35.2597 232.084 34.355C231.624 33.435 231.394 32.377 231.394 31.181C231.394 29.985 231.624 28.9423 232.084 28.053C232.56 27.1483 233.219 26.4583 234.062 25.983C234.921 25.5077 235.895 25.27 236.983 25.27C237.873 25.27 238.67 25.431 239.375 25.753C240.096 26.0597 240.656 26.4967 241.054 27.064C241.468 27.616 241.675 28.2447 241.675 28.95C241.675 29.4713 241.514 29.893 241.192 30.215C240.87 30.537 240.441 30.698 239.904 30.698C239.414 30.698 239.007 30.5523 238.685 30.261C238.379 29.9697 238.225 29.5863 238.225 29.111C238.225 28.7583 238.317 28.444 238.501 28.168C238.149 27.7693 237.604 27.57 236.868 27.57C235.994 27.57 235.327 27.8843 234.867 28.513C234.407 29.1263 234.177 30.008 234.177 31.158C234.177 32.308 234.438 33.228 234.959 33.918C235.496 34.5927 236.24 34.93 237.19 34.93C237.758 34.93 238.21 34.8457 238.547 34.677C238.885 34.493 239.207 34.1863 239.513 33.757C239.805 33.435 240.104 33.274 240.41 33.274ZM255.294 34.654C255.892 34.654 256.191 34.9147 256.191 35.436V36.218C256.191 36.7393 255.892 37 255.294 37H253.04C252.764 37 252.526 36.908 252.327 36.724C252.143 36.5247 252.051 36.2947 252.051 36.034V34.608C251.744 35.3747 251.261 36.0033 250.602 36.494C249.958 36.9847 249.268 37.23 248.532 37.23C247.275 37.23 246.324 36.816 245.68 35.988C245.051 35.16 244.737 33.9487 244.737 32.354V27.846H244.254C243.656 27.846 243.357 27.5853 243.357 27.064V26.282C243.357 25.7607 243.656 25.5 244.254 25.5H246.508C246.784 25.5 247.014 25.592 247.198 25.776C247.382 25.96 247.474 26.19 247.474 26.466V31.664C247.474 32.8907 247.604 33.7417 247.865 34.217C248.126 34.6923 248.593 34.93 249.268 34.93C249.759 34.93 250.219 34.7767 250.648 34.47C251.077 34.148 251.415 33.7263 251.66 33.205C251.921 32.6837 252.051 32.1317 252.051 31.549V27.846H251.568C250.97 27.846 250.671 27.5853 250.671 27.064V26.282C250.671 25.7607 250.97 25.5 251.568 25.5H253.845C254.121 25.5 254.343 25.592 254.512 25.776C254.696 25.96 254.788 26.19 254.788 26.466V34.654H255.294ZM268.546 30.675C268.546 30.8437 268.523 31.227 268.477 31.825H260.772C260.879 32.791 261.193 33.55 261.715 34.102C262.236 34.654 262.918 34.93 263.762 34.93C264.329 34.93 264.781 34.8457 265.119 34.677C265.456 34.493 265.778 34.1863 266.085 33.757C266.376 33.435 266.675 33.274 266.982 33.274C267.288 33.274 267.549 33.366 267.764 33.55C267.978 33.7187 268.086 33.9487 268.086 34.24C268.086 34.562 267.971 34.8993 267.741 35.252C266.821 36.5707 265.456 37.23 263.647 37.23C262.497 37.23 261.492 36.977 260.634 36.471C259.775 35.965 259.116 35.2597 258.656 34.355C258.196 33.435 257.966 32.377 257.966 31.181C257.966 29.985 258.196 28.9423 258.656 28.053C259.116 27.1483 259.76 26.4583 260.588 25.983C261.431 25.5077 262.405 25.27 263.509 25.27C264.475 25.27 265.333 25.477 266.085 25.891C266.851 26.305 267.449 26.9183 267.879 27.731C268.323 28.5437 268.546 29.525 268.546 30.675ZM263.44 27.409C262.704 27.409 262.113 27.6313 261.669 28.076C261.224 28.5053 260.94 29.157 260.818 30.031H265.763V29.893C265.763 29.065 265.556 28.444 265.142 28.03C264.743 27.616 264.176 27.409 263.44 27.409ZM271.254 37C270.656 37 270.357 36.7393 270.357 36.218V35.436C270.357 34.9147 270.656 34.654 271.254 34.654H271.76V22.326H271.254C270.656 22.326 270.357 22.0653 270.357 21.544V20.762C270.357 20.2407 270.656 19.98 271.254 19.98H273.508C273.784 19.98 274.014 20.0797 274.198 20.279C274.397 20.463 274.497 20.6853 274.497 20.946V34.654H274.98C275.578 34.654 275.877 34.9147 275.877 35.436V36.218C275.877 36.7393 275.578 37 274.98 37H271.254ZM287.945 34.654C288.543 34.654 288.842 34.9147 288.842 35.436V36.218C288.842 36.7393 288.543 37 287.945 37H285.691C285.415 37 285.185 36.908 285.001 36.724C284.817 36.5247 284.725 36.2947 284.725 36.034V34.746C284.434 35.4667 283.951 36.0647 283.276 36.54C282.617 37 281.919 37.23 281.183 37.23C280.11 37.23 279.243 36.9157 278.584 36.287C277.94 35.6583 277.618 34.838 277.618 33.826C277.618 32.7067 277.986 31.8633 278.722 31.296C279.473 30.7133 280.577 30.422 282.034 30.422C282.923 30.422 283.82 30.5217 284.725 30.721V29.778C284.725 28.2293 283.958 27.455 282.425 27.455C281.934 27.455 281.543 27.5393 281.252 27.708C281.267 27.754 281.275 27.823 281.275 27.915C281.275 28.3597 281.129 28.7277 280.838 29.019C280.547 29.3103 280.186 29.456 279.757 29.456C279.282 29.456 278.898 29.3103 278.607 29.019C278.316 28.7277 278.17 28.3443 278.17 27.869C278.17 27.087 278.561 26.4583 279.343 25.983C280.14 25.5077 281.175 25.27 282.448 25.27C284.089 25.27 285.331 25.6917 286.174 26.535C287.033 27.3783 287.462 28.5667 287.462 30.1V34.654H287.945ZM281.965 35.16C282.686 35.16 283.314 34.8687 283.851 34.286C284.388 33.7033 284.679 33.0057 284.725 32.193C284.127 32.101 283.36 32.055 282.425 32.055C281.704 32.055 281.175 32.1853 280.838 32.446C280.501 32.6913 280.332 33.0977 280.332 33.665C280.332 34.125 280.478 34.493 280.769 34.769C281.076 35.0297 281.474 35.16 281.965 35.16ZM113.93 53.549C114.375 53.549 114.758 53.6793 115.08 53.94C115.402 54.1853 115.563 54.5073 115.563 54.906C115.563 55.1053 115.509 55.3583 115.402 55.665C115.31 55.9717 115.187 56.2477 115.034 56.493C114.482 57.4283 113.784 58.1183 112.941 58.563C112.098 59.0077 111.055 59.23 109.813 59.23C108.387 59.23 107.145 58.885 106.087 58.195C105.029 57.505 104.216 56.5237 103.649 55.251C103.097 53.9783 102.821 52.4987 102.821 50.812C102.821 49.1407 103.097 47.6917 103.649 46.465C104.201 45.2383 104.998 44.303 106.041 43.659C107.099 42.9997 108.364 42.67 109.836 42.67C110.909 42.67 111.883 42.8463 112.757 43.199C113.631 43.5363 114.313 44.0117 114.804 44.625C115.31 45.223 115.563 45.8977 115.563 46.649C115.563 47.3237 115.356 47.8757 114.942 48.305C114.543 48.7343 114.022 48.949 113.378 48.949C112.719 48.949 112.19 48.7727 111.791 48.42C111.392 48.052 111.193 47.569 111.193 46.971C111.193 46.649 111.254 46.3423 111.377 46.051C111.04 45.8363 110.549 45.729 109.905 45.729C108.724 45.729 107.873 46.1353 107.352 46.948C106.831 47.7453 106.57 49.0103 106.57 50.743C106.57 52.5523 106.854 53.9093 107.421 54.814C107.988 55.7187 108.87 56.171 110.066 56.171C110.633 56.171 111.109 56.0483 111.492 55.803C111.875 55.5423 112.205 55.1437 112.481 54.607C112.68 54.193 112.88 53.917 113.079 53.779C113.294 53.6257 113.577 53.549 113.93 53.549ZM123.32 59.23C121.495 59.23 120.077 58.724 119.065 57.712C118.068 56.6847 117.57 55.2433 117.57 53.388C117.57 51.4713 118.099 49.9763 119.157 48.903C120.215 47.8143 121.679 47.27 123.55 47.27C125.375 47.27 126.785 47.7837 127.782 48.811C128.779 49.823 129.277 51.249 129.277 53.089C129.277 55.0057 128.748 56.5083 127.69 57.597C126.632 58.6857 125.175 59.23 123.32 59.23ZM123.343 56.24C124.11 56.24 124.669 55.9947 125.022 55.504C125.39 54.998 125.574 54.2083 125.574 53.135C125.574 52.1537 125.405 51.433 125.068 50.973C124.731 50.4977 124.209 50.26 123.504 50.26C122.783 50.26 122.231 50.5207 121.848 51.042C121.465 51.5633 121.273 52.33 121.273 53.342C121.273 54.2927 121.449 55.0133 121.802 55.504C122.155 55.9947 122.668 56.24 123.343 56.24ZM150.895 55.941C151.217 55.941 151.478 56.0253 151.677 56.194C151.876 56.3627 151.976 56.6233 151.976 56.976V57.988C151.976 58.3407 151.876 58.6013 151.677 58.77C151.478 58.9233 151.217 59 150.895 59H146.755C146.433 59 146.165 58.9233 145.95 58.77C145.751 58.6013 145.651 58.3407 145.651 57.988V56.976C145.651 56.6233 145.751 56.3627 145.95 56.194C146.165 56.0253 146.433 55.941 146.755 55.941H146.916V52.928C146.916 51.916 146.816 51.2183 146.617 50.835C146.433 50.4517 146.08 50.26 145.559 50.26C144.961 50.26 144.447 50.5207 144.018 51.042C143.604 51.5633 143.397 52.1843 143.397 52.905V55.941H143.535C143.872 55.941 144.141 56.0253 144.34 56.194C144.539 56.3627 144.639 56.6233 144.639 56.976V57.988C144.639 58.3407 144.539 58.6013 144.34 58.77C144.141 58.9233 143.872 59 143.535 59H139.602C139.265 59 138.996 58.9233 138.797 58.77C138.598 58.6013 138.498 58.3407 138.498 57.988V56.976C138.498 56.6233 138.598 56.3627 138.797 56.194C138.996 56.0253 139.265 55.941 139.602 55.941H139.74V52.928C139.74 51.916 139.64 51.2183 139.441 50.835C139.257 50.4517 138.912 50.26 138.406 50.26C137.808 50.26 137.294 50.5207 136.865 51.042C136.436 51.5633 136.221 52.1843 136.221 52.905V55.941H136.382C136.704 55.941 136.965 56.0253 137.164 56.194C137.363 56.3627 137.463 56.6233 137.463 56.976V57.988C137.463 58.3407 137.363 58.6013 137.164 58.77C136.965 58.9233 136.704 59 136.382 59H132.242C131.92 59 131.659 58.9233 131.46 58.77C131.261 58.6013 131.161 58.3407 131.161 57.988V56.976C131.161 56.6233 131.261 56.3627 131.46 56.194C131.659 56.0253 131.92 55.941 132.242 55.941H132.587V50.559H132.242C131.92 50.559 131.659 50.4747 131.46 50.306C131.261 50.1373 131.161 49.8767 131.161 49.524V48.512C131.161 48.1593 131.261 47.9063 131.46 47.753C131.659 47.5843 131.92 47.5 132.242 47.5H135.094C135.416 47.5 135.684 47.6073 135.899 47.822C136.114 48.0367 136.221 48.3127 136.221 48.65V49.685C136.528 48.9643 136.98 48.3817 137.578 47.937C138.176 47.4923 138.805 47.27 139.464 47.27C140.384 47.27 141.158 47.5 141.787 47.96C142.416 48.4047 142.86 49.041 143.121 49.869C143.55 49.0257 144.072 48.3817 144.685 47.937C145.314 47.4923 145.958 47.27 146.617 47.27C147.874 47.27 148.84 47.6687 149.515 48.466C150.205 49.2633 150.55 50.3827 150.55 51.824V55.941H150.895ZM164.274 52.675C164.274 53.181 164.243 53.6333 164.182 54.032H157.144C157.267 54.722 157.535 55.2663 157.949 55.665C158.363 56.0483 158.9 56.24 159.559 56.24C159.973 56.24 160.303 56.1863 160.548 56.079C160.793 55.9563 161.062 55.7647 161.353 55.504C161.706 55.182 162.058 55.021 162.411 55.021C162.794 55.021 163.116 55.1283 163.377 55.343C163.653 55.5423 163.791 55.8413 163.791 56.24C163.791 56.6847 163.653 57.0833 163.377 57.436C162.994 57.9573 162.465 58.3867 161.79 58.724C161.115 59.0613 160.31 59.23 159.375 59.23C158.133 59.23 157.06 58.9847 156.155 58.494C155.25 57.988 154.56 57.2827 154.085 56.378C153.61 55.458 153.372 54.4 153.372 53.204C153.372 51.9773 153.61 50.9193 154.085 50.03C154.576 49.1407 155.25 48.4583 156.109 47.983C156.983 47.5077 157.987 47.27 159.122 47.27C160.057 47.27 160.916 47.4693 161.698 47.868C162.48 48.2667 163.101 48.8723 163.561 49.685C164.036 50.4977 164.274 51.4943 164.274 52.675ZM159.007 49.984C158.01 49.984 157.397 50.605 157.167 51.847H160.548C160.563 51.755 160.571 51.6247 160.571 51.456C160.571 50.9807 160.425 50.6203 160.134 50.375C159.858 50.1143 159.482 49.984 159.007 49.984ZM178.873 55.941C179.195 55.941 179.456 56.0253 179.655 56.194C179.855 56.3627 179.954 56.6233 179.954 56.976V57.988C179.954 58.3407 179.855 58.6013 179.655 58.77C179.456 58.9233 179.195 59 178.873 59H174.733C174.396 59 174.128 58.9233 173.928 58.77C173.729 58.6013 173.629 58.3407 173.629 57.988V56.976C173.629 56.6233 173.729 56.3627 173.928 56.194C174.128 56.0253 174.396 55.941 174.733 55.941H174.894V52.928C174.894 51.9313 174.787 51.2413 174.572 50.858C174.373 50.4593 174.005 50.26 173.468 50.26C172.87 50.26 172.349 50.5283 171.904 51.065C171.46 51.5863 171.237 52.1997 171.237 52.905V55.941H171.398C171.72 55.941 171.981 56.0253 172.18 56.194C172.38 56.3627 172.479 56.6233 172.479 56.976V57.988C172.479 58.3407 172.38 58.6013 172.18 58.77C171.981 58.9233 171.72 59 171.398 59H167.258C166.936 59 166.676 58.9233 166.476 58.77C166.277 58.6013 166.177 58.3407 166.177 57.988V56.976C166.177 56.6233 166.277 56.3627 166.476 56.194C166.676 56.0253 166.936 55.941 167.258 55.941H167.603V50.559H167.258C166.936 50.559 166.676 50.4747 166.476 50.306C166.277 50.1373 166.177 49.8767 166.177 49.524V48.512C166.177 48.1593 166.277 47.9063 166.476 47.753C166.676 47.5843 166.936 47.5 167.258 47.5H170.11C170.432 47.5 170.701 47.6073 170.915 47.822C171.13 48.0367 171.237 48.3127 171.237 48.65V49.685C171.529 48.9797 171.981 48.4047 172.594 47.96C173.223 47.5 173.875 47.27 174.549 47.27C175.807 47.27 176.78 47.6687 177.47 48.466C178.176 49.2633 178.528 50.3827 178.528 51.824V55.941H178.873ZM190.88 54.055C191.233 54.055 191.494 54.1547 191.662 54.354C191.831 54.5533 191.915 54.8217 191.915 55.159V57.85C191.915 58.1873 191.8 58.4633 191.57 58.678C191.356 58.8927 191.087 59 190.765 59H182.669C182.332 59 182.056 58.8927 181.841 58.678C181.627 58.4633 181.519 58.195 181.519 57.873V57.413C181.519 57.137 181.573 56.8993 181.68 56.7C181.788 56.4853 181.956 56.24 182.186 55.964L187.062 50.26H184.647V50.881C184.647 51.2183 184.563 51.4867 184.394 51.686C184.241 51.8853 183.988 51.985 183.635 51.985H182.623C181.949 51.985 181.611 51.617 181.611 50.881V48.65C181.611 48.3127 181.719 48.0367 181.933 47.822C182.148 47.6073 182.416 47.5 182.738 47.5H190.673C190.995 47.5 191.264 47.6073 191.478 47.822C191.693 48.0367 191.8 48.305 191.8 48.627V49.087C191.8 49.3477 191.747 49.593 191.639 49.823C191.532 50.0377 191.363 50.2753 191.133 50.536L186.28 56.24H188.856V55.159C188.856 54.8217 188.933 54.5533 189.086 54.354C189.255 54.1547 189.516 54.055 189.868 54.055H190.88ZM204.61 55.941C204.932 55.941 205.192 56.0253 205.392 56.194C205.606 56.3627 205.714 56.6233 205.714 56.976V57.988C205.714 58.3407 205.606 58.6013 205.392 58.77C205.192 58.9233 204.932 59 204.61 59H201.758C201.436 59 201.167 58.8927 200.953 58.678C200.738 58.4633 200.631 58.1873 200.631 57.85V56.861C200.324 57.5663 199.872 58.1413 199.274 58.586C198.676 59.0153 198.047 59.23 197.388 59.23C196.345 59.23 195.502 58.9157 194.858 58.287C194.214 57.6583 193.892 56.8303 193.892 55.803C193.892 54.607 194.267 53.733 195.019 53.181C195.77 52.629 196.943 52.353 198.538 52.353C199.151 52.353 199.849 52.4143 200.631 52.537V51.755C200.631 51.2183 200.477 50.7967 200.171 50.49C199.864 50.1833 199.45 50.03 198.929 50.03C198.637 50.03 198.384 50.0837 198.17 50.191C198.093 50.6357 197.878 51.0037 197.526 51.295C197.188 51.571 196.782 51.709 196.307 51.709C195.739 51.709 195.279 51.548 194.927 51.226C194.574 50.8887 194.398 50.4593 194.398 49.938C194.398 49.11 194.812 48.4583 195.64 47.983C196.468 47.5077 197.549 47.27 198.883 47.27C200.661 47.27 202.003 47.7147 202.908 48.604C203.812 49.478 204.265 50.72 204.265 52.33V55.941H204.61ZM198.561 56.631C199.082 56.631 199.534 56.4087 199.918 55.964C200.316 55.504 200.546 54.952 200.608 54.308C200.056 54.2467 199.55 54.216 199.09 54.216C198.522 54.216 198.116 54.3233 197.871 54.538C197.641 54.7373 197.526 55.0823 197.526 55.573C197.526 55.8797 197.625 56.1327 197.825 56.332C198.024 56.5313 198.269 56.631 198.561 56.631ZM215.54 47.27C216.322 47.27 216.92 47.4923 217.334 47.937C217.748 48.3663 217.955 48.9413 217.955 49.662C217.955 50.3213 217.748 50.8657 217.334 51.295C216.935 51.709 216.398 51.916 215.724 51.916C215.248 51.916 214.834 51.778 214.482 51.502C214.144 51.226 213.914 50.858 213.792 50.398C213.347 50.5667 212.979 50.8963 212.688 51.387C212.412 51.8623 212.274 52.3837 212.274 52.951V55.941H213.033C213.355 55.941 213.615 56.0253 213.815 56.194C214.014 56.3627 214.114 56.6233 214.114 56.976V57.988C214.114 58.3407 214.014 58.6013 213.815 58.77C213.615 58.9233 213.355 59 213.033 59H208.295C207.973 59 207.712 58.9233 207.513 58.77C207.313 58.6013 207.214 58.3407 207.214 57.988V56.976C207.214 56.6233 207.313 56.3627 207.513 56.194C207.712 56.0253 207.973 55.941 208.295 55.941H208.64V50.559H208.295C207.973 50.559 207.712 50.4747 207.513 50.306C207.313 50.1373 207.214 49.8767 207.214 49.524V48.512C207.214 48.1593 207.313 47.9063 207.513 47.753C207.712 47.5843 207.973 47.5 208.295 47.5H211.147C211.469 47.5 211.737 47.6073 211.952 47.822C212.166 48.0367 212.274 48.3127 212.274 48.65V50.053C212.534 49.2097 212.964 48.535 213.562 48.029C214.175 47.523 214.834 47.27 215.54 47.27Z" fill="white"/>
<defs>
<filter id="filter0_dd" x="10" y="8" width="300" height="66" filterUnits="userSpaceOnUse" color-interpolation-filters="sRGB">
<feFlood flood-opacity="0" result="BackgroundImageFix"/>
<feColorMatrix in="SourceAlpha" type="matrix" values="0 0 0 0 0 0 0 0 0 0 0 0 0 0 0 0 0 0 127 0"/>
<feOffset dy="4"/>
<feColorMatrix type="matrix" values="0 0 0 0 0 0 0 0 0 0.435294 0 0 0 0 0.188235 0 0 0 1 0"/>
<feBlend mode="normal" in2="BackgroundImageFix" result="effect1_dropShadow"/>
<feColorMatrix in="SourceAlpha" type="matrix" values="0 0 0 0 0 0 0 0 0 0 0 0 0 0 0 0 0 0 127 0"/>
<feOffset dy="-2"/>
<feColorMatrix type="matrix" values="0 0 0 0 0.454902 0 0 0 0 0.917647 0 0 0 0 0.741176 0 0 0 1 0"/>
<feBlend mode="normal" in2="effect1_dropShadow" result="effect2_dropShadow"/>
<feBlend mode="normal" in="SourceGraphic" in2="effect2_dropShadow" result="shape"/>
</filter>
<linearGradient id="paint0_linear" x1="160" y1="0" x2="160" y2="83.6364" gradientUnits="userSpaceOnUse">
<stop stop-color="#F2D0A7"/>
<stop offset="0.942708" stop-color="#BD8853"/>
</linearGradient>
</defs>
</svg>
